<svg width="140" height="118" viewBox="0 0 140 118" fill="none" xmlns="http://www.w3.org/2000/svg">
<path d="M16.5711 31.3028L8.41471 19.856V31.3028H1.18101V5.18627H8.41471V16.4479L16.4973 5.18627H24.8381L15.2793 17.8556L25.3179 31.3028H16.5711Z" fill="white"/>
<path d="M49.1443 10.5207V31.3028H41.8737V28.3393C41.2586 29.2777 40.4097 30.0433 39.3272 30.636C38.2446 31.2041 37.002 31.4881 35.5996 31.4881C33.1884 31.4881 31.2815 30.6978 29.8791 29.1172C28.5012 27.5119 27.8123 25.3386 27.8123 22.5973V10.5207H35.0091V21.6712C35.0091 22.8566 35.3166 23.7951 35.9317 24.4866C36.5715 25.1534 37.408 25.4868 38.4414 25.4868C39.4994 25.4868 40.3359 25.1534 40.951 24.4866C41.5662 23.7951 41.8737 22.8566 41.8737 21.6712V10.5207H49.1443Z" fill="white"/>
<path d="M60.1258 25.2645H68.9464V31.3028H52.1539V25.5609L60.3841 16.559H52.2277V10.5207H68.6512V16.2627L60.1258 25.2645ZM65.2558 5.48263L56.0291 9.11302V4.18606L65.2558 0V5.48263Z" fill="white"/>
<path d="M85.5114 10.3355C87.8981 10.3355 89.7926 11.1381 91.1951 12.7434C92.5975 14.324 93.2987 16.4726 93.2987 19.1892V31.3028H86.065V20.1524C86.065 18.9669 85.7575 18.0408 85.1424 17.374C84.5273 16.6825 83.703 16.3368 82.6696 16.3368C81.587 16.3368 80.7382 16.6825 80.1231 17.374C79.508 18.0408 79.2004 18.9669 79.2004 20.1524V31.3028H71.9667V10.5207H79.2004V13.4843C79.8401 12.5458 80.7013 11.7926 81.7839 11.2246C82.8665 10.6319 84.109 10.3355 85.5114 10.3355Z" fill="white"/>
<path d="M100.922 8.59439C99.6423 8.59439 98.6089 8.24864 97.8215 7.55714C97.0588 6.84094 96.6774 5.95186 96.6774 4.88991C96.6774 3.80326 97.0588 2.90184 97.8215 2.18564C98.6089 1.46944 99.6423 1.11134 100.922 1.11134C102.177 1.11134 103.185 1.46944 103.948 2.18564C104.735 2.90184 105.129 3.80326 105.129 4.88991C105.129 5.95186 104.735 6.84094 103.948 7.55714C103.185 8.24864 102.177 8.59439 100.922 8.59439ZM104.502 10.5207V31.3028H97.2679V10.5207H104.502Z" fill="white"/>
<path d="M107.44 20.8933C107.44 18.7447 107.821 16.8677 108.584 15.2625C109.371 13.6572 110.429 12.4224 111.758 11.558C113.111 10.6936 114.612 10.2614 116.261 10.2614C117.688 10.2614 118.918 10.5454 119.951 11.1134C120.985 11.6815 121.784 12.4471 122.35 13.4102V10.5207H129.584V31.3028H122.35V28.4134C121.784 29.3765 120.972 30.1421 119.914 30.7101C118.881 31.2781 117.663 31.5622 116.261 31.5622C114.612 31.5622 113.111 31.13 111.758 30.2656C110.429 29.4012 109.371 28.1664 108.584 26.5611C107.821 24.9311 107.44 23.0419 107.44 20.8933ZM122.35 20.8933C122.35 19.5596 121.981 18.51 121.243 17.7445C120.53 16.9789 119.644 16.5961 118.586 16.5961C117.503 16.5961 116.605 16.9789 115.892 17.7445C115.178 18.4853 114.821 19.535 114.821 20.8933C114.821 22.2269 115.178 23.2888 115.892 24.0791C116.605 24.8447 117.503 25.2275 118.586 25.2275C119.644 25.2275 120.53 24.8447 121.243 24.0791C121.981 23.3135 122.35 22.2516 122.35 20.8933Z" fill="white"/>
<path d="M8.41471 56.6291C8.98061 55.666 9.78025 54.9004 10.8136 54.3324C11.847 53.7643 13.0649 53.4803 14.4674 53.4803C16.1159 53.4803 17.6045 53.9125 18.9331 54.7769C20.2863 55.6413 21.3443 56.8761 22.1071 58.4814C22.8944 60.0866 23.2881 61.9636 23.2881 64.1122C23.2881 66.2608 22.8944 68.1501 22.1071 69.78C21.3443 71.3853 20.2863 72.6201 18.9331 73.4845C17.6045 74.3489 16.1159 74.7811 14.4674 74.7811C13.0649 74.7811 11.847 74.4971 10.8136 73.9291C9.80485 73.361 9.00521 72.5954 8.41471 71.6323V84.4498H1.18101V53.7396H8.41471V56.6291ZM15.9437 64.1122C15.9437 62.7539 15.5746 61.7043 14.8365 60.9634C14.1229 60.1978 13.2372 59.815 12.1792 59.815C11.1212 59.815 10.2231 60.1978 9.485 60.9634C8.77147 61.729 8.41471 62.7786 8.41471 64.1122C8.41471 65.4705 8.77147 66.5324 9.485 67.298C10.2231 68.0636 11.1212 68.4464 12.1792 68.4464C13.2372 68.4464 14.1229 68.0636 14.8365 67.298C15.5746 66.5077 15.9437 65.4458 15.9437 64.1122Z" fill="white"/>
<path d="M33.4997 57.4071C34.3116 56.2216 35.2958 55.2832 36.4522 54.5917C37.6086 53.9002 38.8511 53.5544 40.1798 53.5544V61.2968H38.1499C36.5752 61.2968 35.4065 61.6055 34.6438 62.2229C33.881 62.8403 33.4997 63.9146 33.4997 65.4458V74.5218H26.266V53.7396H33.4997V57.4071Z" fill="white"/>
<path d="M52.4056 74.7811C50.3389 74.7811 48.4812 74.3489 46.8327 73.4845C45.2089 72.6201 43.9294 71.3853 42.9945 69.78C42.0595 68.1748 41.592 66.2855 41.592 64.1122C41.592 61.9636 42.0595 60.0866 42.9945 58.4814C43.954 56.8761 45.2458 55.6413 46.8697 54.7769C48.5181 53.9125 50.3758 53.4803 52.4426 53.4803C54.5093 53.4803 56.3547 53.9125 57.9785 54.7769C59.627 55.6413 60.9188 56.8761 61.8537 58.4814C62.8133 60.0866 63.2931 61.9636 63.2931 64.1122C63.2931 66.2608 62.8133 68.1501 61.8537 69.78C60.9188 71.3853 59.627 72.6201 57.9785 73.4845C56.33 74.3489 54.4724 74.7811 52.4056 74.7811ZM52.4056 68.4835C53.4144 68.4835 54.251 68.113 54.9153 67.3721C55.6042 66.6065 55.9487 65.5199 55.9487 64.1122C55.9487 62.7045 55.6042 61.6302 54.9153 60.8893C54.251 60.1484 53.4267 59.7779 52.4426 59.7779C51.4584 59.7779 50.6341 60.1484 49.9698 60.8893C49.3055 61.6302 48.9733 62.7045 48.9733 64.1122C48.9733 65.5446 49.2932 66.6312 49.9329 67.3721C50.5726 68.113 51.3969 68.4835 52.4056 68.4835Z" fill="white"/>
<path d="M69.853 51.8133C68.5735 51.8133 67.5401 51.4676 66.7528 50.7761C65.9901 50.0599 65.6087 49.1708 65.6087 48.1088C65.6087 47.0222 65.9901 46.1208 66.7528 45.4046C67.5401 44.6884 68.5735 44.3303 69.853 44.3303C71.1078 44.3303 72.1166 44.6884 72.8793 45.4046C73.6666 46.1208 74.0603 47.0222 74.0603 48.1088C74.0603 49.1708 73.6666 50.0599 72.8793 50.7761C72.1166 51.4676 71.1078 51.8133 69.853 51.8133ZM73.4698 76.5592C73.4698 81.8196 70.8371 84.4498 65.5718 84.4498H62.9514V78.2633H64.5015C65.1166 78.2633 65.5595 78.1398 65.8301 77.8928C66.1008 77.6459 66.2361 77.2384 66.2361 76.6704V53.7396H73.4698V76.5592Z" fill="white"/>
<path d="M97.3351 63.8899C97.3351 64.4579 97.2982 65.026 97.2244 65.594H83.532C83.6059 66.73 83.9134 67.582 84.4547 68.1501C85.0206 68.6934 85.7341 68.965 86.5953 68.965C87.8009 68.965 88.6621 68.4217 89.1787 67.3351H96.8922C96.5724 68.7675 95.945 70.0517 95.01 71.1877C94.0996 72.2991 92.9432 73.1758 91.5408 73.8179C90.1383 74.46 88.5882 74.7811 86.8905 74.7811C84.8484 74.7811 83.0276 74.3489 81.4284 73.4845C79.8537 72.6201 78.6112 71.3853 77.7008 69.78C76.815 68.1748 76.3722 66.2855 76.3722 64.1122C76.3722 61.9389 76.815 60.062 77.7008 58.4814C78.5865 56.8761 79.8168 55.6413 81.3915 54.7769C82.9907 53.9125 84.8238 53.4803 86.8905 53.4803C88.9327 53.4803 90.7411 53.9002 92.3158 54.7398C93.8905 55.5795 95.1207 56.7897 96.0065 58.3702C96.8922 59.9261 97.3351 61.766 97.3351 63.8899ZM89.9538 62.0747C89.9538 61.1856 89.6585 60.4941 89.068 60.0002C88.4775 59.4816 87.7394 59.2223 86.8536 59.2223C85.9679 59.2223 85.242 59.4692 84.6761 59.9632C84.1102 60.4324 83.7412 61.1363 83.5689 62.0747H89.9538Z" fill="white"/>
<path d="M113.25 74.5218L107.529 66.0015V74.5218H100.295V47.1086H107.529V61.8895L113.25 53.7396H121.923L113.766 64.1863L122.07 74.5218H113.25Z" fill="white"/>
<path d="M136.407 68.3353V74.5218H133.27C127.98 74.5218 125.335 71.8916 125.335 66.6312V59.7779H122.789V53.7396H125.335V48.7015H132.606V53.7396H136.37V59.7779H132.606V66.7424C132.606 67.3104 132.729 67.7179 132.975 67.9648C133.245 68.2118 133.688 68.3353 134.303 68.3353H136.407Z" fill="white"/>
<path d="M10.8136 118C8.74686 118 6.88923 117.568 5.24074 116.703C3.61685 115.839 2.33742 114.604 1.40245 112.999C0.467484 111.394 0 109.504 0 107.331C0 105.182 0.467484 103.306 1.40245 101.7C2.36202 100.095 3.65375 98.8602 5.27764 97.9958C6.92614 97.1314 8.78377 96.6992 10.8505 96.6992C12.9173 96.6992 14.7626 97.1314 16.3865 97.9958C18.035 98.8602 19.3268 100.095 20.2617 101.7C21.2213 103.306 21.7011 105.182 21.7011 107.331C21.7011 109.48 21.2213 111.369 20.2617 112.999C19.3268 114.604 18.035 115.839 16.3865 116.703C14.738 117.568 12.8804 118 10.8136 118ZM10.8136 111.702C11.8224 111.702 12.659 111.332 13.3233 110.591C14.0122 109.825 14.3567 108.739 14.3567 107.331C14.3567 105.923 14.0122 104.849 13.3233 104.108C12.659 103.367 11.8347 102.997 10.8505 102.997C9.86637 102.997 9.04212 103.367 8.3778 104.108C7.71348 104.849 7.38132 105.923 7.38132 107.331C7.38132 108.763 7.70118 109.85 8.34089 110.591C8.98061 111.332 9.80485 111.702 10.8136 111.702Z" fill="white"/>
<path d="M55.2397 96.9585L49.962 117.741H41.8426L38.9639 105.145L35.9744 117.741H27.8919L22.6511 96.9585H29.8479L32.173 110.739L35.2363 96.9585H42.9867L46.1606 110.776L48.4489 96.9585H55.2397Z" fill="white"/>
<path d="M56.1168 107.331C56.1168 105.182 56.4981 103.306 57.2609 101.7C58.0482 100.095 59.1062 98.8602 60.4348 97.9958C61.7881 97.1314 63.289 96.6992 64.9375 96.6992C66.3645 96.6992 67.5947 96.9833 68.6281 97.5513C69.6615 98.1193 70.4611 98.8849 71.027 99.848V96.9585H78.2607V117.741H71.027V114.851C70.4611 115.814 69.6492 116.58 68.5912 117.148C67.5578 117.716 66.3399 118 64.9375 118C63.289 118 61.7881 117.568 60.4348 116.703C59.1062 115.839 58.0482 114.604 57.2609 112.999C56.4981 111.369 56.1168 109.48 56.1168 107.331ZM71.027 107.331C71.027 105.997 70.658 104.948 69.9198 104.182C69.2063 103.417 68.3206 103.034 67.2626 103.034C66.18 103.034 65.2819 103.417 64.5684 104.182C63.8549 104.923 63.4981 105.973 63.4981 107.331C63.4981 108.665 63.8549 109.727 64.5684 110.517C65.2819 111.283 66.18 111.665 67.2626 111.665C68.3206 111.665 69.2063 111.283 69.9198 110.517C70.658 109.751 71.027 108.689 71.027 107.331Z" fill="white"/>
<path d="M95.9275 96.7733C98.3141 96.7733 100.209 97.576 101.611 99.1812C103.014 100.762 103.715 102.91 103.715 105.627V117.741H96.4811V106.59C96.4811 105.405 96.1735 104.479 95.5584 103.812C94.9433 103.12 94.119 102.775 93.0857 102.775C92.0031 102.775 91.1542 103.12 90.5391 103.812C89.924 104.479 89.6164 105.405 89.6164 106.59V117.741H82.3827V96.9585H89.6164V99.9221C90.2561 98.9837 91.1173 98.2304 92.1999 97.6624C93.2825 97.0697 94.525 96.7733 95.9275 96.7733Z" fill="white"/>
<path d="M111.338 95.0322C110.058 95.0322 109.025 94.6865 108.238 93.995C107.475 93.2788 107.093 92.3897 107.093 91.3278C107.093 90.2411 107.475 89.3397 108.238 88.6235C109.025 87.9073 110.058 87.5492 111.338 87.5492C112.593 87.5492 113.601 87.9073 114.364 88.6235C115.151 89.3397 115.545 90.2411 115.545 91.3278C115.545 92.3897 115.151 93.2788 114.364 93.995C113.601 94.6865 112.593 95.0322 111.338 95.0322ZM114.918 96.9585V117.741H107.684V96.9585H114.918Z" fill="white"/>
<path d="M117.856 107.331C117.856 105.182 118.237 103.306 119 101.7C119.787 100.095 120.845 98.8602 122.174 97.9958C123.527 97.1314 125.028 96.6992 126.677 96.6992C128.104 96.6992 129.334 96.9833 130.367 97.5513C131.401 98.1193 132.2 98.8849 132.766 99.848V96.9585H140V117.741H132.766V114.851C132.2 115.814 131.388 116.58 130.33 117.148C129.297 117.716 128.079 118 126.677 118C125.028 118 123.527 117.568 122.174 116.703C120.845 115.839 119.787 114.604 119 112.999C118.237 111.369 117.856 109.48 117.856 107.331ZM132.766 107.331C132.766 105.997 132.397 104.948 131.659 104.182C130.946 103.417 130.06 103.034 129.002 103.034C127.919 103.034 127.021 103.417 126.308 104.182C125.594 104.923 125.237 105.973 125.237 107.331C125.237 108.665 125.594 109.727 126.308 110.517C127.021 111.283 127.919 111.665 129.002 111.665C130.06 111.665 130.946 111.283 131.659 110.517C132.397 109.751 132.766 108.689 132.766 107.331Z" fill="white"/>
</svg>
